<svg xmlns="http://www.w3.org/2000/svg" width="240" height="240">
  <!-- bicycle top-left -->
  <g transform="translate(10,16) rotate(-8,28,22)" opacity="0.35" fill="none" stroke="#FC4C02" stroke-width="1.5" stroke-linecap="round" stroke-linejoin="round">
    <!-- wheels -->
    <circle cx="16" cy="22" r="9"/>
    <circle cx="46" cy="22" r="9"/>
    <!-- frame: rear-axle → bottom-bracket → seat-tube-top → head-tube-top → front-axle -->
    <polyline points="16,22 28,22 28,10 40,10 46,22"/>
    <!-- seat stay: seat-tube-top → rear-axle -->
    <line x1="28" y1="10" x2="16" y2="22"/>
    <!-- down tube: bottom-bracket → head-tube-top -->
    <line x1="28" y1="22" x2="40" y2="10"/>
    <!-- seat post + saddle -->
    <line x1="28" y1="10" x2="28" y2="4"/>
    <line x1="24" y1="4" x2="32" y2="4"/>
    <!-- handlebar stem + bar (at head tube) -->
    <line x1="40" y1="10" x2="40" y2="4"/>
    <line x1="37" y1="4" x2="43" y2="4"/>
  </g>

  <!-- route squiggle with waypoints top-right -->
  <g transform="translate(92,12) rotate(12,30,14)" opacity="0.35" fill="none" stroke="#FC4C02" stroke-width="1.5" stroke-linecap="round">
    <path d="M0,18 C8,4 22,30 32,14 C42,0 52,22 60,10"/>
    <circle cx="0" cy="18" r="2.5" fill="#FC4C02"/>
    <circle cx="60" cy="10" r="2.5" fill="#FC4C02"/>
  </g>

  <!-- heart-rate / activity pulse centre -->
  <g transform="translate(50,70) rotate(-6,22,12)" opacity="0.35" fill="none" stroke="#FC4C02" stroke-width="1.5" stroke-linecap="round" stroke-linejoin="round">
    <polyline points="0,12 12,12 16,2 20,22 24,6 28,12 44,12"/>
  </g>

  <!-- map pin bottom-right -->
  <g transform="translate(108,96) rotate(15,14,17)" opacity="0.35" fill="none" stroke="#FC4C02" stroke-width="1.5" stroke-linecap="round" stroke-linejoin="round">
    <path d="M14,0 C7,0 1,6 1,13 C1,22 14,34 14,34 C14,34 27,22 27,13 C27,6 21,0 14,0 Z"/>
    <circle cx="14" cy="13" r="4.5"/>
  </g>

  <!-- strava logo bottom-left -->
  <g transform="translate(10,92) rotate(-18,18,28)" opacity="0.35" fill="#FC4C02" stroke="none">
    <g transform="scale(2)">
      <path d="M15.387 17.944l-2.089-4.116h-3.065L15.387 24l5.15-10.172h-3.066l-2.084 4.116z"/>
      <path d="M11.379 7.956l2.084 4.1h3.066L11.379 2 6.229 12.056h3.066l2.084-4.1z"/>
    </g>
  </g>

  <!-- running shoe (mid-right area) -->
  <!-- source viewBox: 0 0 512 512, scaled to ~50px wide: scale = 50/512 ≈ 0.0977 -->
  <g transform="translate(165,32) rotate(8,25,20)" opacity="0.35" fill="#FC4C02" stroke="none">
    <g transform="scale(0.0977)">
      <path d="M264.144,416.889L14.642,205.12L0,222.38l249.532,211.798l0.034,0.03
        c28.365,23.868,64.366,37.003,101.443,37.01h159.922v-22.638H351.01C319.292,448.581,288.402,437.322,264.144,416.889z"/>
      <path d="M203.394,336.186l56.013,47.136c-2.07-10.412-6.623-21.543-15.617-31.812
        c-6.968-7.966-21.928-24.401-39.924-44.533C203.397,316.698,203.21,326.524,203.394,336.186z"/>
      <path d="M141.098,205.698c-9.717-8.664-18.354-16.682-25.496-23.824c6.923,10.704,13.333,20.425,22.882,32.494
        C139.323,211.511,140.198,208.624,141.098,205.698z"/>
      <path d="M194.91,251.657c-14.556-12.107-28.463-23.816-41.054-34.745c-0.893,4.133-1.785,8.371-2.64,12.729
        c9.852,11.312,22.541,24.874,39.826,42.291C192.187,265.361,193.466,258.587,194.91,251.657z"/>
      <path d="M330.506,424.022c-0.372-18.197-4.4-63.248-33.957-88.205c-27.911-23.568-59.254-49.094-88.812-73.532
        c-0.912,7.576-1.751,15.587-2.46,23.838c1.938,1.92,3.889,3.841,5.929,5.836c40.044,39.253,71.222,70.09,74.808,113.228
        C299.34,414.654,314.525,421.052,330.506,424.022z"/>
      <path d="M143.198,285.524l41.136,34.617c0.946-9.032,2.205-19.405,3.886-30.746
        c-12.943-14.635-26.625-30.327-39.594-45.689C146.277,257.298,144.327,271.497,143.198,285.524z"/>
      <path d="M134.872,227.196c-20.23-24.656-37.018-46.956-43.656-60.473l5.58-6.683c-0.011-0.008-0.022-0.023-0.022-0.023
        l6.676-8.266c0,0,17.463,16.742,42.478,39.05c4.013-11.837,8.547-23.936,13.682-35.975l9.5,3.586c0,0-5.555,17.357-11.623,42.605
        c12.654,11.087,26.628,23.028,40.951,34.7c2.686-11.394,5.788-23.043,9.392-34.707l9.35,2.483c0,0-3.616,16.922-7.156,41.533
        c15.355,12.174,30.777,23.681,45.052,33.132c61.016,40.431,102.772,82.721,107.136,147.785c20.744,0,66.91,0,109.11,0
        c56.584,0,48.096-56.58,11.315-65.064c-24.809-5.731-56.685-18.895-56.685-18.895c-12.576-4.193-22.867-13.39-28.44-25.421
        c0,0-1.373-2.902-3.679-7.824l-46.202,13.975c-5.049,1.522-10.378-1.335-11.904-6.376c-1.527-5.048,1.327-10.382,6.375-11.904
        l43.526-13.165c-3.744-7.966-8.087-17.237-12.662-27.018l-43.172,13.058c-5.04,1.523-10.378-1.327-11.904-6.375
        c-1.526-5.049,1.331-10.374,6.376-11.904l40.531-12.257c-4.313-9.256-8.607-18.475-12.575-27.041l-40.262,12.174
        c-5.044,1.53-10.377-1.327-11.904-6.376c-1.522-5.04,1.328-10.373,6.372-11.896l37.715-11.409
        c-5.404-11.77-9.335-20.485-10.374-23.186c-4.546-11.806-14.511-44.533-37.254-26.328
        c-37.389,29.922-105.596,21.138-123.204-11.574c-13.202-24.52-5.66-50.924,0-71.672c4.519-16.585-18.869-42.441-35.844-19.81
        c-12.002,16-113.171,135.806-113.171,135.806l100.457,84.537C127.228,257.77,130.544,243.151,134.872,227.196z"/>
    </g>
  </g>

  <!-- smartwatch (mid-left area) -->
  <g transform="translate(18,168) rotate(-12,16,24)" opacity="0.35" fill="none" stroke="#FC4C02" stroke-width="1.5" stroke-linecap="round" stroke-linejoin="round">
    <!-- strap top (two parallel lines) -->
    <line x1="10" y1="0" x2="10" y2="8"/>
    <line x1="22" y1="0" x2="22" y2="8"/>
    <line x1="10" y1="0" x2="22" y2="0"/>
    <!-- watch body (rounded rect) -->
    <rect x="4" y="8" width="24" height="28" rx="5" ry="5"/>
    <!-- strap bottom -->
    <line x1="10" y1="36" x2="10" y2="46"/>
    <line x1="22" y1="36" x2="22" y2="46"/>
    <line x1="10" y1="46" x2="22" y2="46"/>
    <!-- strap buckle hole -->
    <circle cx="16" cy="42" r="1.5"/>
    <!-- screen: mini heart-rate pulse -->
    <polyline points="7,23 10,23 12,18 14,28 16,21 18,23 25,23"/>
    <!-- side crown button -->
    <path d="M28,16 L31,16 L31,20 L28,20" rx="1"/>
  </g>

  <!-- swimming / open water (bottom-right area) -->
  <g transform="translate(175,170) rotate(6,30,10)" opacity="0.35" fill="none" stroke="#FC4C02" stroke-width="1.5" stroke-linecap="round" stroke-linejoin="round">
    <!-- wave 1 -->
    <path d="M0,8 C6,2 12,14 18,8 C24,2 30,14 36,8 C42,2 48,14 54,8"/>
    <!-- wave 2 -->
    <path d="M0,16 C6,10 12,22 18,16 C24,10 30,22 36,16 C42,10 48,22 54,16"/>
  </g>

  <!-- mountain / MTB terrain (bottom-centre) -->
  <g transform="translate(90,160) rotate(12,34,28)" opacity="0.35" fill="none" stroke="#FC4C02" stroke-width="1.5" stroke-linecap="round" stroke-linejoin="round">
    <!-- left large peak -->
    <polyline points="0,48 24,4 48,48"/>
    <!-- right smaller peak overlapping -->
    <polyline points="32,48 50,20 68,48"/>
    <!-- snow cap on large peak -->
    <polyline points="18,20 24,4 30,20"/>
  </g>
</svg>
